<?xml version="1.0" encoding="iso-8859-1"?>
<!-- Generator: Adobe Illustrator 16.0.0, SVG Export Plug-In . SVG Version: 6.00 Build 0)  -->
<!DOCTYPE svg PUBLIC "-//W3C//DTD SVG 1.1//EN" "http://www.w3.org/Graphics/SVG/1.1/DTD/svg11.dtd">
<svg version="1.1" id="Layer_1" xmlns="http://www.w3.org/2000/svg" xmlns:xlink="http://www.w3.org/1999/xlink" x="0px" y="0px"
	 width="350px" height="350px" viewBox="0 0 350 350" style="enable-background:new 0 0 350 350;" xml:space="preserve">
<g>
	<g>
		<g id="background_copy">
			<g>
				<defs>
					<rect id="SVGID_1_" width="350" height="350"/>
				</defs>
				<clipPath id="SVGID_2_">
					<use xlink:href="#SVGID_1_"  style="overflow:visible;"/>
				</clipPath>
				<g style="clip-path:url(#SVGID_2_);">
					<g>
						<defs>
							<rect id="SVGID_3_" width="350" height="350"/>
						</defs>
						<clipPath id="SVGID_4_">
							<use xlink:href="#SVGID_3_"  style="overflow:visible;"/>
						</clipPath>
						
							<linearGradient id="SVGID_5_" gradientUnits="userSpaceOnUse" x1="-778.5474" y1="410.6045" x2="-777.5474" y2="410.6045" gradientTransform="matrix(-1.530000e-05 350 -350 -1.530000e-05 143886.5 272491.5)">
							<stop  offset="0" style="stop-color:#8E84A9"/>
							<stop  offset="1" style="stop-color:#635688"/>
						</linearGradient>
						<rect style="clip-path:url(#SVGID_4_);fill:url(#SVGID_5_);" width="350" height="350"/>
					</g>
				</g>
			</g>
		</g>
		<g>
			<g>
				<g id="bird">
					<g>
						<defs>
							<rect id="SVGID_6_" x="88.116" y="36.695" width="173.75" height="276.596"/>
						</defs>
						<clipPath id="SVGID_7_">
							<use xlink:href="#SVGID_6_"  style="overflow:visible;"/>
						</clipPath>
						<g style="clip-path:url(#SVGID_7_);">
							<g>
								<defs>
									<rect id="SVGID_8_" x="74.08" y="24.994" width="200" height="300"/>
								</defs>
								<clipPath id="SVGID_9_">
									<use xlink:href="#SVGID_8_"  style="overflow:visible;"/>
								</clipPath>
								<path style="clip-path:url(#SVGID_9_);fill:#FFFF00;" d="M193.631,300.518c-0.474-0.996-0.938-1.985-1.41-2.981
									c-4.885,6.269-10.016,11.538-18.715,14.156c1.299-1.937,2.016-5.449,2.367-8.589c-2.773,4.525-14.977,9.938-16.214,10.188
									c1.897-2.753,3.437-8.307,3.231-8.084c-0.604,1.494-17.77,7.543-17.77,7.543s9.03-7.684,8.432-8.939
									c-0.141,0.297-10.838,3.812-22.582,6.322c10.652-5.199,14.104-8.92,17.389-12.347c-3.502,0.767-19.467,5.94-28.579,3.325
									c26.358-2.603,57.568-36.118,59.615-62.598c-5.567,1.295-12.638,1.312-14.269,1.486c1.485-1.775,2.032-4.201,2.032-4.201
									c-0.532,0.223-8.092,0.446-9.95,0.24c2.996-2.189,4.004-4.709,4.004-4.709c-3.019-0.227-11.523,0.118-12.765,0.137
									c0,0,8.2-5.031,11.608-7.931c-6.69,0.825-12.959,1.772-19.563-0.05c5.216-2.448,10.037-3.385,15.337-7.954
									c-7.186-0.005-15.63,1.639-22.148-2.054c6.463-0.805,12.486-2.879,18.072-6.226c-8.34-0.759-17.144,0.847-24.939-3.362
									c6.738-0.498,12.084-1.683,18.345-4.322c-2.358-0.524-19.538-2.205-26.95-6.827c7.694,0.661,17.309,0.641,23.071-1.665
									c-4.364-0.062-24.043-4.895-32.228-11.236c3.535,0.282,11.031,0.99,17.969-0.079c-2.732-1.396-23.75-9.85-29.989-22.352
									c2.332,2.534,17.655,8.372,24.89,6.974c-2.746,0.531-28.429-18.064-30.5-36.837c5.891,9.862,21.317,15.788,26.699,17.168
									c-26.609-25.835-30.005-59.639-24.753-72.251c-0.157,11.906,7.884,41.688,24.479,52.513
									c-11.477-17.008-29.162-51.074-10.453-82.741c-5.271,31.243,0.048,43.587,8.291,56.799
									c-2.793-9.396-2.735-18.5,0.174-27.315c1.998,16.487,7.384,33.489,19.701,45.203c-7.744-21.351-16.987-56.062,0.047-80.227
									c-13.877,61.689,24.377,94.355,38.436,103.481c-1.871-1.215,1.28-10.972,0.629-12.358
									c4.252,9.033,11.192,21.04,20.649,25.513c0.097-2.123-1.175-8.401-0.371-12.816c5.877,8.657,16.8,16.482,22.073,25.515
									c4.828,8.097-5.312,19.907,1.018,24.809c8.123,2.627,17.77-8.673,27.426-5.854c16.399,5.547,10.688,38.513,10.317,38.853
									c-12.618-17.985-16.991-2.196-17.636,2.233c-0.575,3.949-6.519,34.554-18.498,40.104
									C192.65,281.27,207.223,288.434,193.631,300.518"/>
							</g>
						</g>
					</g>
				</g>
			</g>
		</g>
	</g>
</g>
</svg>
