<?xml version="1.0" encoding="iso-8859-1"?>
<!-- Generator: Adobe Illustrator 16.0.0, SVG Export Plug-In . SVG Version: 6.00 Build 0)  -->
<!DOCTYPE svg PUBLIC "-//W3C//DTD SVG 1.1//EN" "http://www.w3.org/Graphics/SVG/1.1/DTD/svg11.dtd">
<svg version="1.1" id="Layer_1" xmlns="http://www.w3.org/2000/svg" xmlns:xlink="http://www.w3.org/1999/xlink" x="0px" y="0px"
	 width="200px" height="300px" viewBox="0 0 200 300" style="enable-background:new 0 0 200 300;" xml:space="preserve">
<g id="Bird">
	<path style="fill:#FFFF00;" d="M119.551,275.523c-0.473-0.996-0.936-1.985-1.41-2.981c-4.885,6.271-10.016,11.538-18.715,14.156
		c1.299-1.937,2.016-5.449,2.367-8.589c-2.773,4.524-14.977,9.938-16.213,10.188c1.896-2.754,3.436-8.307,3.23-8.084
		c-0.604,1.493-17.77,7.543-17.77,7.543s9.031-7.684,8.432-8.938c-0.141,0.295-10.838,3.812-22.582,6.322
		c10.652-5.199,14.105-8.922,17.389-12.35c-3.502,0.77-19.467,5.939-28.578,3.326c26.357-2.604,57.566-36.119,59.613-62.6
		c-5.566,1.295-12.639,1.312-14.27,1.486c1.486-1.775,2.033-4.201,2.033-4.201c-0.533,0.223-8.092,0.445-9.951,0.24
		c2.996-2.189,4.004-4.709,4.004-4.709c-3.018-0.227-11.523,0.117-12.764,0.137c0,0,8.199-5.031,11.607-7.932
		c-6.689,0.826-12.959,1.773-19.562-0.051c5.215-2.447,10.037-3.385,15.336-7.953c-7.186-0.006-15.629,1.64-22.148-2.053
		c6.463-0.806,12.486-2.881,18.072-6.228c-8.34-0.76-17.143,0.847-24.939-3.362c6.738-0.496,12.084-1.683,18.346-4.32
		c-2.359-0.524-19.539-2.206-26.951-6.828c7.695,0.662,17.309,0.642,23.072-1.665c-4.365-0.062-24.043-4.894-32.229-11.236
		c3.535,0.283,11.031,0.99,17.969-0.079c-2.732-1.396-23.75-9.85-29.988-22.352c2.332,2.534,17.654,8.372,24.889,6.974
		c-2.746,0.531-28.428-18.062-30.5-36.836c5.891,9.862,21.318,15.788,26.699,17.167C17.431,93.884,14.036,60.08,19.288,47.467
		c-0.158,11.906,7.883,41.688,24.479,52.514C32.291,82.974,14.605,48.909,33.314,17.242c-5.271,31.243,0.049,43.587,8.291,56.798
		c-2.793-9.396-2.734-18.5,0.174-27.314c1.998,16.487,7.385,33.489,19.701,45.203c-7.744-21.351-16.986-56.062,0.047-80.227
		C47.65,73.391,85.904,106.056,99.963,115.183c-1.871-1.215,1.281-10.973,0.629-12.358c4.252,9.033,11.193,21.04,20.65,25.513
		c0.096-2.123-1.176-8.401-0.371-12.816c5.877,8.657,16.799,16.481,22.072,25.515c4.828,8.097-5.312,19.906,1.018,24.809
		c8.123,2.627,17.77-8.673,27.426-5.854c16.4,5.546,10.689,38.513,10.318,38.853c-12.619-17.985-16.992-2.196-17.637,2.233
		c-0.574,3.949-6.52,34.554-18.496,40.104C118.57,256.275,133.143,263.439,119.551,275.523z"/>
</g>
<g id="Text">
</g>
</svg>
